<?xml version="1.0" encoding="UTF-8"?>
<svg id="_图层_1" data-name="图层 1" xmlns="http://www.w3.org/2000/svg" viewBox="0 0 202.88 202.88">
  <path d="M70.91,202.47c-1.77-.11-2.71-.44-4-.21-4.14.75-8.22.34-12.34.36l-27.07.16c-4.38.03-9.2.43-13.12-.63C-3.02,197.48.26,182.09.22,170.58l-.08-22.96-.02-24.16c0-.65,1.19-1.78,1.44-2.12s-1.53-1.31-1.53-2v-52.97S.29,21.8.29,21.8l.1-5.66c1.29.95,1.95,1.21,3.6,1.51l.12,28.79,4.92,2.7c-.4-9.4-.57-18.09,8.84-23.7-3.94-3.47-7.77-6.85-10.98-10.18-.46-.48-.93-2.31-1.47-2.13l-2.17.74-.59,1.72c-.17.48-2.32.23-2.24-.49C1.49,6.12,11.41-1.52,22.01.26c2.84.48,6.01-.02,8.94-.03l44.44-.13,26.42.26c2.05.02,3.46.04,5.59.04h78.17c10.4,0,17.32,9.52,17.29,18.05l-.03,8.07-.05,32.64-.06,89.17c0,4.97.27,9.62-.45,14.31-.27,1.74-.25,2.28.08,4.13.99,5.57.23,11.07.5,16.93.45,9.77-7.42,18.92-18.54,18.96l-36.75.15c-2.33,0-4.23-.89-5.52-2.51-.44,1.22-1.89,2.53-3.29,2.53l-12.71-.03-26.24-.17c-9.55-.06-18.9.45-28.88-.16ZM21.54,23.71c3.17-.84,5.84-1.26,8.7-1.24l16.08.12c1.41.01,3.34.33,4.72.56l-11.21-18.76c-.39-.65-1.6-1.6-2.3-1.72-.58-.1-2.02,1.06-2.6,1.08l-17.79.41c-4.29.1-8,2.84-10.17,5.8l14.57,13.75ZM121.84,22.52l5.39-18.82-23.91.1-.08,19.01,18.61-.29ZM125.55,24.45c2.31-1.12,3.36-1.61,4.74-1.87l17.23.03,11.71-18.84-28.83-.13c.07,2.1-.29,4.48-1.13,5.74-.76-.14-1.9-.5-1.85-.21l.23,1.34c.03.19,1.35.07,1.36.27.15,5.06-3.44,5.61-3.47,13.67ZM73.13,9.73l-1.55-5.78h-27.69s11.36,18.88,11.36,18.88l21.7-.18-3.82-12.92ZM99.51,7.89c1.35-.33,2.52-.45,2.48-.88-.13-1.42-2.36-3.15-3.91-3.15l-22.34-.02c-1.39,1.77.36,3.61.99,5.29,1.66,4.35,2.97,9.02,4.28,13.57h18.6s-.1-14.8-.1-14.8ZM181.58,23.66l14.5-14.01c-2.61-2.95-6.74-5.73-10.96-5.73h-21.43s-11.68,18.7-11.68,18.7l17.8.29,6.21.26c1.68.07,3.82.33,5.56.5ZM198.7,46.6l.29-4.42c.89.24,2.11.67,2.02.33s-.11-.96-.36-1.02l-1.76-.44v-18.5c0-3.16.64-6.21-1.16-9.05-3.94,3.82-7.37,7.41-11.88,9.95l-1.62.91c-.33.19.53,1.5.93,1.74,9.19,5.47,8.94,13.91,8.7,23.18l4.85-2.68ZM99.41,40.24l.46-14.08-14.79.17-2.27-2.18c-3,1.42-.76,3.02-.18,4.84l3.6,11.3,13.18-.06ZM141.62,40.23l22.38.02,14.1-13.38c-2.07-.43-4.72-1.6-6.08-1.39l-6.37.96-16.18-.05-7.85,13.85ZM43.08,40.36l18.43-.09-8.63-13.85-28.48.12,9.61,8.84c2.11,1.92,4.07,4.19,5.6,6.57.11-.25,2.39-1.58,3.48-1.59ZM69.36,44.05c-.3-1.67-.16-1.98-.51-2.14l-1.97-.93c.72-.25,2.43-.6,3.61-.59l11.36.08-3.85-14.1-20.67-.18c3.04,4.68,6.34,9.59,8.86,14.77.42.87.7,1.25,1.14,1.93l7.58,11.79,11.31-.21-3.35-10.45h-13.51ZM116.89,40.21l3.88-13.83-17.35-.12-.2,14.03,13.67-.07ZM136.55,40.36l8.68-13.98-20.3-.02-4.4,14.58c5.35-.71,10.35-.92,16.03-.58ZM18.76,54.23c1.71-8.14,7.9-12.22,14.89-13.74l-12.71-12.47c-10.81,6.53-6.53,13.76-8.39,23.24l6.21,2.98ZM184.2,54.43l5.62-3.13c-.67-10.62,2.25-16.11-7.54-23.15l-7.48,6.96c-1.98,1.84-3.94,3.58-6.35,5.62,7.74.68,14.02,6.11,15.75,13.7ZM45.26,57.01c.34-.75.65-2.08,1.27-2.07l2.6.05-3.04-3.61c-.19-.22-.23-1.61-.51-1.58l-1.51.21-6.43-5.95c-7.52-.5-14.39,5.21-15.32,12.33l9.23,4.79c2.59-3.69,11.26-8.9,13.7-4.17ZM70.35,54.59l-6.46-10.57-21.8-.35,12.47,10.72,15.79.19ZM99.41,54.89l.04-11.04-12.62.18,3.47,11.01-3.05,1.61,2.62.38s.07-3.76,9.55-2.15ZM112.82,54.58l3-10.44-12.46-.26.2,10.78,9.26-.08ZM128.16,54.5l6.15-10.36-14.61-.29-2.96,10.93,11.42-.28ZM132.68,54.63l16.11-.18,10.6-10.29-20.22-.07-2.2,3.08c-.46.65-2.18,1.51-2.54,1.55-.4,1.86-.86,3.38-1.75,5.91ZM181.14,56.21c-.69-6.95-9.16-12.49-15.77-12.06l-11.63,10.5c6.66-.61,13.14,1.54,17.81,6.71l9.59-5.15ZM9.05,76.25l.06-22.75-4.99-2.48v24.04s4.93,1.19,4.93,1.19ZM193.42,76.44c2.39-.54,3.88-.99,5.37-1.58l-.09-23.88c-2.01.8-3.82,1.64-5.37,2.64.73,8.05.64,14.81.09,22.82ZM189.79,77.4l.13-19.66c1.25-1.11,1.75-1.42,2.56-3.09-3.1,1.09-5.52,2.22-7.87,3.84l-.09,20.94,5.28-2.02ZM18.06,78.48l-.03-19.88-4.91-2.88-.11,21.43,5.06,1.33ZM61.39,66.2l-8.51-8-5.28.02c-5.18.02-10.17,1.76-12.87,5.09l9.38,4.77c-.18,1.19-.46,1.81-.06,1.96l2.18.83-.15-1.5c-.28-2.81,10.61-3.26,15.31-3.17ZM77.4,66.18l-4.67-7.92-14.26.12,8.05,7.79h10.88ZM89.72,66.39l-2.8-8.16-10.09.02,5.11,8.07,7.77.07ZM99.44,66.29l-.15-7.94-8.36-.3,2.6,8.28,5.91-.04ZM109.97,64.29l1.86-6.15-8.36.22-.05,7.95c3.34.09,5.55.28,8.17.64-.54-.06-1.85-1.88-1.62-2.66ZM120.76,65.99l5.2-7.65-10.28-.1-2.29,8.1,7.37-.35ZM135.75,68.38l2.88-.39-2.31-1.53c.42.28,5.81-6.84,8.5-8.06l-14.6-.25-4.79,8,4.27.02c1.62,0,2.91.81,4.03,2.28l.07-1.41c.02-.31,1.68-.63,1.72-.32l.22,1.65ZM167.72,62.98c-3.34-3.44-7.45-4.63-11.8-4.69l-5.83-.08-9.15,8.49c6.18-.75,12.07-.82,16.62,2.57l10.16-6.29ZM21.93,79.47l5.41,1.66c-.39-5.67-.16-11.09,1.47-16.75l-6.49-3.55-.26,6.81c-.32,8.61-1.63,2.27-.13,11.82ZM175.64,81.06l5.17-1.64.02-18.98-7.08,3.94,1.56,7.17c.68,3.14.34,6.74.33,9.52ZM30.92,81.74l5.22,1.21c.68-4.84,2.26-8.37,5.84-11.68l-9.42-4.9c-2.33,4.09.09,5.84-3.37,6.79,1.73,2.46,2.03,4.97,1.73,8.59ZM171.64,81.9l.15-9.86c.03-1.96-.68-4.02-1.66-5.74l-9.53,4.96c4.13,3.48,5.57,6.89,5.97,11.8l5.07-1.16ZM131.65,75.68c4.2.06,8.79,1.66,12.14.17l9.96-4.44-4.18-3.02c-.29.35-2.34,1.78-3.32,1.75l-8.65-.26-5.95,5.8ZM71.75,75.94l-7.06-6.16c-5.23.07-10.37.26-15.83,1.12l10.03,5.12,12.86-.08ZM83.44,75.56l-3.83-5.73-9.18.34c5.91,4.31,4.1,6.84,13.01,5.38ZM91.95,75.41l-1.7-5.39h-5.93s3.27,5.09,3.27,5.09c.58.9,3.14.68,4.36.3ZM99.4,75.68l.41-5.8-5.67-.1,2.17,6.01,3.09-.12ZM106.72,75.31l1.51-4.99-4.92-.65.1,6.04c.67.23,3.11.28,3.32-.4ZM115.15,75.06l3.26-5.03-5.93-.08-1.47,5.6c.67.21,3.58.38,4.15-.5ZM126.16,75.18l6.14-5.2-9.12.15-3.58,5.47c1.73.22,5.34.6,6.56-.43ZM156.01,86.2c2.06-.66,4.31-1.16,6.89-1.66-.2-4.27-2.33-8.58-5.58-11.33l-8.87,4.9c3.2,2.27,5.73,5.2,7.56,8.09ZM46.77,86.22c1.82-2.74,4.48-5.91,7.8-8.05l-9.05-4.7c-3.25,2.62-5.46,6.82-5.34,10.6l6.59,2.16ZM9.1,99.96v-20.27s-5.09-.88-5.09-.88l.06,20.83,5.03.32ZM62.1,81.97c4.9-5.21,4.56,3.23,17.91,1.65l-4.67-4.34c-9.61.17-18.33-2.14-24.21,7.64l8.62,2.03c2.36-2.22,4.66-3.39,7.3-4.1l-4.94-2.87ZM88.27,83.49c-1.77-4.47-4.56-4.72-7.99-4.02l3.15,2.83c1.42,1.28,3.4,1.91,4.83,1.19ZM119.15,82.57l3.47-3.19c-1.19-.11-3.28-.15-4.6,0-1.13.13-2.32,2.17-3.1,3.84.74.7,3.29.22,4.22-.64ZM198.61,99.26l.43-19.73c-1.04-.92-4.65-.26-5.42,1l.21,19.44,4.78-.72ZM92.74,79.58l-2.29.23,2.87,4.57c2.03-.09,0-4.86-.57-4.81ZM99.26,79.04l-2.14.42.92,4.17,2.14-.42-.92-4.17ZM111.74,81.2c.34-.85.82-1.53.4-1.55-.31-.02-1.91-.15-2.11-.15l-2,3.63c.99.25,2.06.52,2.35.08l1.35-2.01ZM130.35,83.25c2.76-.65,5.44-2.52,8.14-3.75l-10.84.02-3.16,1.69c-.94.5-1.83,1.04-2.22,1.87-.29.62.77,1.9,1.5,1.73l6.57-1.56ZM148.88,99.48l4.58.14.17-4.26c.05-1.27,1.25-3.23,2.06-4.01-.55-.15-2.04-.56-1.97-1.03l.18-1.36c-3.39-2.43-2.51-6.25-10.17-8.5l-7.88,4.26,7.63,3.92,8.42-1.31c-.5,1.13-.93,1.51-.8,1.81l.62,1.35-5.99,1.94c1.56,2.33,2.23,4.2,3.16,7.05ZM18.29,99.62l-.37-17.05-4.89-1.46-.36,18.79,5.63-.28ZM184.09,100.04l5.88-.39-.02-9.14-.12-9.56-4.96,1.72-.31,7.06c-.97-.12-2.27-.68-2.26-.25l.06,2.41c.01.42.81.05,2.35-.09l-.63,8.23ZM27.26,99.74l-.25-15.08-4.72-1.06-.31,16.12,5.28.02ZM180.68,99.57l.3-8.6c.08-2.24-.29-4.46-.47-7.36l-4.87,1.11.02,15.18,5.02-.33ZM171.46,99.5l.55-13.86-5.52,1.3.2,13.05,4.77-.49ZM36.14,99.89l-.07-12.88-4.78-1.11-.13,13.72,4.99.27ZM133.24,115.11c5.8-.07,10.49-7.14,11.14-11.36.86-5.64-1.62-9.62-4.8-12.73-3.74-3.65-8.22-3.83-13.55-3.81l-18.03.07-35.47.05c-8.88.01-15.07,7.92-14.25,16.26.47,4.78,4.96,9.29,9.66,11.12,3.61,1.41,7.69,1.09,11.62,1.05l53.68-.65ZM157.32,99.86l5.2-.33.35-12.32-5.47,2.18-.09,10.47ZM45.14,99.32l.53-10.15-5.33-.96-.15,11.81,4.95-.7ZM54.04,99.32l2.6-7.17-7.28-1.68-.18,9.54,4.86-.69ZM30.93,101.49c-1.16-.96-5.87,3.03-5.89,1.22l-.02-1.55-3.1,2.37v16.25s5.12-1.61,5.12-1.61c.71-7.44-2.27-12.87,3.89-16.67ZM36.57,117.15l-.18-13.8c-1.91-.25-3.74-.43-5.58-.47l.48,14.41c1.81-.23,3.81-.27,5.28-.13ZM9.08,122.73l-.05-19.41-4.86.05-.18,20.67,5.09-1.3ZM18.21,119.67l-.22-16.39-4.88.09-.17,18.47c1.5.03,5.01-.9,5.27-2.17ZM45.12,108.5l.15-5.4-5.31.26.25,11.69,5.86-1.8c-.55-1.62-1-3.15-.95-4.75ZM57.1,110.57c-1.84-3.16-2.11-4.35-2.87-7.21l-5.32.02.48,9.34c3.04-.56,5.82-1.36,7.72-2.15ZM153.5,113.03l.22-9.82-5.02.17c-.76,2.95-1.53,5.01-3.11,7.16l7.91,2.49ZM162.84,114.88l-.21-11.8-5.77.08c1.04,3.86.85,6.51-.12,10.54l6.1,1.17ZM172.13,117.38l-.56-14.05-4.96-.3-.12,12.83,5.64,1.52ZM181.57,119.68c-1.02-5.7-1.03-10.72-.92-16.26l-4.98-.48-.43,17.4,6.33-.66ZM190.21,122.18c-.48-6.14-.5-12.45-.3-18.95l-5.19-.24v17.61s5.49,1.57,5.49,1.57ZM199,124.24l-.28-21.31-4.87.4-.38,19.28,5.52,1.63ZM66.27,118.37l-7.11-4.27c-2.42.47-5.32,1.26-8.12,2.13,2.49,3,4.74,4.78,7.61,6.39l7.62-4.24ZM141.95,122.79c4.06-.45,7.37-2.83,9.83-6.67l-8.17-1.99-7.21,4.15c2.41,1.35,4.24,2.46,5.55,4.51ZM54.51,124.63c-3.64-2.13-6.17-5-7.34-8.3-1.31.63-3.05,1.5-3.94,1.54-.76.03-1.71-1.06-2.52-1.67-.41.19-1.92,1.05-1.75,1.56l.76,2.38c1.23,3.82,3.22,7.62,5.97,9.77l8.81-5.29ZM157.33,129.88c3.12-3.19,5.29-7.09,5.32-10.95l-6.84-2.11c-1.92,3.1-4.49,5.81-7.69,7.83l9.21,5.22ZM76.17,123.16c1.38-1.92,2.43-3.11,4.53-2.44.83-.55.21-3.34-.94-3.75-4.44,4.76-5.05-.23-14.74,6.48l11.16-.29ZM88.22,119.61l-3.28-1.75c-.95,1.93-1.93,3.21-3.72,5.38.54.25,3.65.68,4.45.05s1.48-1.96,2.55-3.68ZM105.73,123.73l-1.56-5.8c-2.14,2.23-2.04,5.34,1.56,5.8ZM112.26,123.53c.13-1.82-1.09-4.05-2.97-4.6-.86.61-.66,2.14-.31,3.09.41,1.12,2.03,1.82,3.27,1.51ZM121.05,124.1c3.06-.74-3.95-6.71-6.37-4.7.5,2.05,2.73,4.08,4.78,4.67-.06.57-.33,1.54-.03,1.5.35-.04,1.64.08,1.64-.22l-.02-1.26ZM94.01,120.63c1.27-.95,1.33-1.43-.98-1.48-.91.89-2.36,3.11-2.74,4.23,2.72.87,3.29-.62,3.72-2.75ZM98,123.6c.55.41,1.89-1.05,1.72-1.71l-.69-2.68c-1.46,1.18-2.52,3.29-1.03,4.4ZM129.29,123.45l8.45-.2c-7.44-3.89-6.06-4.67-14.49-3.86l3.59,3.6-1.12,2.19c1.2-.79,2.62-1.7,3.58-1.73ZM32.64,136.54l9.34-4.91c-3.67-3.34-5.55-7.17-5.78-12.06l-5.03,1.6-.07,9.06c-.02,2.19.63,4.64,1.55,6.31ZM170.64,136.52c.95-5.39,1.05-10.16,1.06-15.5l-5.02-1.18c-.43,4.66-2.12,8.91-6.28,11.8l10.23,4.88ZM29.03,138.43c-1.23-3.02-2.14-6.7-1.98-10.19l.28-6.28-5.36.75c.22,4.44.35,11.56-.04,15.96-.04.48-2.16,1.27-1.92,1.63l.97,1.37.87,1.22c.79,1.11,4.39-3.28,7.18-4.46ZM180.71,142.13l.12-18.6-5.04-1.53-.26,10.9c-.04,1.53-1.04,3.84-1.62,5.62l6.8,3.62ZM13.04,128.78l-.05,18.96,5.06-3.16.19-18.22c0-.5.48-2.2.02-2.12l-1.68.26c-4.36.92-8.63,1.98-12.7,3.46l.23,24.16,4.83-2.73.43-22.69,3.69,2.07ZM189.92,146.63l-.33-21.02-4.98-1.68.12,20.29c1.49,1.18,3.38,2.21,5.19,2.41ZM87.28,135.56c-.32-6.03,3.46,2.35,5.14-8.57-2.32-.67-3.35-1.11-5.01-2.49l-1.26,1.41c-.31.34,1.11,2.07.86,2.44l-3.06,4.59,3.33,2.62ZM65.25,132.8l5.84-5.69c-19.07-.14-6.22-2.77-22.17,4.86,5.53.97,10.74,1.06,16.33.83ZM132.87,133.16c-2.58-2.29-5.1-4.57-7.38-6.16l-6.46-.36,4.08,6.14,9.75.38ZM153.92,131.97l-9.74-5.33-12.57.61,5.91,5.81c6.54.6,10.3.02,16.4-1.09ZM199.03,152.8l-.44-24.85-4.77-1.77-.04,23.59,5.26,3.04ZM79.91,132.95l3.21-5.64c-7.51-1.24-7.13.77-12.57,5.66l9.35-.02ZM99.59,132.99l-.24-5.85-3.21.21-1.67,5.48,5.13.16ZM109.54,137.21c1.42-.87,2.07-1.05,1.96-1.42l-.69-2.46,7.4-.6-2.08-4.01c-.37-.7-1.54-1.68-2.3-1.76-.83-.09-2.85.42-2.94.79,1.02,2.88,1.92,5.29-1.97,6.3l-2.28-6.7-2.99-.08-1.02,5.64c.87,1.65,3.51,1.82,4.77.61l3.24,2.95-7.36.03.14,7.99,8.47.3-2.35-7.59ZM53.03,144.55l8.82-8.29c-5.91.96-11.64.48-16.72-2.09l-10.74,5.67c3.24,3.11,7.88,5.01,13.23,4.86l5.41-.16ZM158.04,144.44c3.92-.21,7.62-2.25,9.93-4.67l-10.29-5.63c-8.39,3.51-6.83,1.95-16.3,2.43l8.93,8.27,7.72-.4ZM72.57,144.59l4.92-8.09-11.09.21-8.61,8.12,14.78-.24ZM87.02,144.69c1.16-3.68,1.79-5.21,3.3-8.43l-8.39.76-5.02,7.59,10.12.08ZM99.58,144.77l-.02-8.23-6.07.03-2.76,8.21h8.85ZM123.97,141.59c-.81-1.15-2.06-4.38-3.5-4.62-2.19-.36-4.6-.34-7.08-.35l2.36,7.99,10.33-.05-2.1-2.97ZM145.13,144.67l-8.88-7.82c-3.49-.4-7.18-.5-11.37-.34l5.45,8.32,14.81-.15ZM63.7,158.91l6.54-10.58-16.08.05-11.49,10.52-4.53-.4c3.6-3.93,6.79-6.81,11.27-10.5-8.09,1.33-13.09-1.65-18.11-6.51l-8.91,4.92c.44,6.96,6.58,11.22,13.41,12.83.82,1.24,1.6,2.18,3.21,3.59l-14.91,13.7h28.92s8.42-13.84,8.42-13.84l-23.14-.08c-2.77-5.56,23.6-3.47,25.39-3.7ZM165.41,158.59c8.03.86,14.32-5.43,15.16-12.1l-9.13-4.89c-4.41,5.16-10.07,7.17-17.42,6.75l11.4,10.24ZM115.81,159.03l-2.03-7.56,1.88-.81c.22-.1-.14-.87-.39-.91l-1.41-.2-1.24-3.69c-.58.92-1.96,2.57-2.92,2.55l-6.13-.11-.19,10.66,12.43.06ZM70.5,158.95l12.37-.15,3.31-10.74-11.18.26-4.2,6.79c-1.16,1.88-2.75,3.34-4.37,5.03.65.09,3.07-1.17,4.07-1.18ZM99.51,158.99l-.13-11.09-9.15.54-3.22,10.48,12.51.08ZM134.37,158.8l-6.65-10.66-10.99.16,3.11,10.61,14.54-.11ZM152.78,158.77l6.96.07-11.02-10.37-16.29-.31,6.44,10.53,9.49.33-.45,1.75c-.07.28,1.39.29,1.64.12l3.23-2.12ZM4.54,190.28c1-.19,2.45-.51,3.25-.71.72-.17.18-2.42.57-3.04l9.29-9.03c-3.29-2.44-6.04-4.9-7.24-9l3.71.08c1.9,2.55,4.1,4.7,6.57,6.13l12.91-12.34c-7.74-1.47-13.37-6.64-15-13.96l-5.56,3.22.12,15.01-1.88-1.38-.71,3.59c-2.02-4.95-1.55-9.49-1.51-15.08l-5.02,2.65-.09,25.92c0,2.68,0,5.21.58,7.92ZM181.99,174.68c6.18-3.11,7.79-8.65,7.87-14.57l.12-8.5-5.53-3.16c-1.77,6.87-7.11,12.36-15.44,13.87l8.36,8.27,4.62,4.1ZM196.69,188.39c.4.39,1.14.92,1.36.6.16-.24.75-1.39.75-1.98l.07-30.48-5.17-3.25c.26,10.2.89,17.64-8.39,24.11l11.38,11.01ZM77.81,176.37l4.14-13.68-15.7-.16-8.34,12.93c-.68.41-1.41.85-1.07.89.23.02,1.3.36,1.68.35l19.29-.33ZM99.63,176.69l-.04-14.22-13.59.13-3.96,13.85,17.58.24ZM120.76,176.56l-3.94-14.02-13.61-.07.27,14.02,17.28.07ZM145.31,176.59l-8.71-13.89-15.81-.12,4.26,13.92,20.26.09ZM175.51,173.47l-12.14-10.95-21.98.18,8.5,13.79,27.48.2c.79,0,.95-1.79.67-2.54-.2-.52-1.37-.52-2.52-.68ZM39.63,198.72l8.37-13.94c.96-1.6,1.87-2.82,3.12-4.6l-18.62.16c-3.73.03-7.58-.31-11.05-.92l-14.76,13.54c1.28,1.48,3.34,3.67,4.68,4.79,7.5,1.71,21.25,1.72,28.26.96ZM75.64,199.11l23.64-.14.44-19.9c-1.04.46-3.08,1.29-4.05,1.29h-14.54s-5.5,18.75-5.5,18.75ZM163.18,199.07l23.12-.26c4.05-.04,7.75-3.11,9.99-5.86l-14.94-13.55c-3.3.6-6.67.99-10.18.97l-19.2-.09,9.16,14.28c.83,1.29,1.45,2.93,2.04,4.51ZM71.67,199.01c1.58-6.5,3.29-12.81,5.52-18.78l-21.81.12-11.67,18.64h27.96ZM127.11,198.86l-5.28-18.59-18.5-.09.08,18.8,23.7-.12ZM158.99,198.94l-11.52-18.61-21.36.07,5.18,18.64,27.7-.09Z"/>
</svg>