<svg width="803" height="803" viewBox="0 0 803 803" fill="none" xmlns="http://www.w3.org/2000/svg">
<rect x="5" y="5" width="793" height="793" rx="152" fill="white" stroke="black" stroke-width="10"/>
<path d="M272.593 372.895C271.121 379.053 269.349 385.392 267.847 392.12C266.345 398.849 264.783 405.188 263.341 411.616C261.809 418.435 260.307 425.044 258.805 431.082C256.972 438.562 254.449 444.93 252.767 450.097C250.544 456.916 247.99 462.894 244.776 468.361C241.171 474.489 237.086 479.506 232.49 483.982C227.503 488.818 223.178 494.316 217.32 497.32C211.462 500.324 204.403 501.495 197.794 502.757C191.185 504.019 184.486 505.07 177.697 504.619C170.908 504.169 164.57 502.126 158.021 500.204C151.473 498.281 144.804 496.629 139.637 493.264C134.02 489.599 130.625 483.712 126.69 478.605C122.755 473.498 118.88 468.451 116.446 462.173C114.193 456.315 111.43 450.217 110.348 443.488C109.327 437.3 110.889 430.601 110.769 423.812C110.649 417.504 109.687 410.985 110.258 404.257C110.829 397.528 112.511 390.949 114.043 384.34C115.575 377.731 118.159 371.483 120.682 365.295C123.205 359.107 124.888 352.047 128.462 346.55C132.277 340.692 136.903 335.465 141.8 331.14C146.967 326.544 153.065 323.359 159.343 321.076C165.621 318.793 171.81 317.352 177.788 316.721C184.276 316.03 190.675 315.789 196.773 316.961C202.871 318.133 209.089 320.055 214.887 322.939C220.354 325.643 225.431 329.548 230.657 333.603C235.404 337.328 240.601 341.113 245.197 345.889C249.402 350.245 252.797 354.691 256.882 359.858C266.195 357.395 265.323 355.682 273.404 350.425C281.485 345.168 280.884 344.267 288.965 339.01C297.045 333.753 297.436 334.324 305.487 329.097C313.537 323.87 313.988 324.471 322.068 319.214C330.149 313.957 330.389 314.348 338.47 309.091C346.551 303.834 345.77 302.632 353.851 297.375C361.931 292.118 362.562 293.049 370.643 287.792C378.723 282.535 384.281 286.08 385.753 276.558C387.345 266.224 380.075 268.327 374.127 259.735C368.179 251.144 357.275 251.234 362.592 242.222C367.909 233.21 372.625 243.514 382.508 245.496C392.392 247.479 392.392 247.479 402.275 249.462C412.158 251.444 412.158 251.384 422.041 253.367C431.924 255.349 437.691 248.771 441.927 257.933C446.433 267.636 437.391 267.846 432.915 277.549C428.439 287.252 428.259 287.192 423.783 296.894C419.307 306.597 419.998 306.928 415.522 316.661C411.046 326.393 416.574 335.886 405.879 335.586C396.026 335.315 405.699 325.883 406.36 316.06C407.021 306.237 407.111 306.237 407.772 296.384C408.433 286.531 418.586 281.394 410.295 276.047C402.485 271 402.185 282.085 394.554 287.402C386.924 292.719 387.345 293.32 379.715 298.667C372.085 304.014 371.123 302.602 363.493 307.949C355.863 313.296 356.164 313.717 348.534 319.034C340.903 324.351 341.354 325.042 333.724 330.359C326.094 335.676 325.373 334.654 317.743 339.971C310.113 345.288 311.074 346.67 303.414 352.017C295.754 357.364 295.303 356.644 287.403 361.63C279.502 366.617 279.202 366.346 272.623 372.955L272.593 372.895ZM188.211 481.999C195.901 483.321 202.961 482.811 209.329 480.317C215.698 477.824 221.916 473.528 226.993 468.181C232.069 462.834 236.005 456.946 239.309 450.518C242.613 444.089 246.038 437.21 247.72 430.571C249.703 422.791 250.364 415.011 249.823 408.913C249.252 402.394 248.141 395.575 246.308 389.117C244.476 382.658 240.18 377.161 237.056 371.393C233.932 365.625 230.898 359.407 226.242 354.811C221.585 350.215 215.728 346.941 209.479 344.357C203.682 341.954 197.403 339.761 190.224 339.731C184.156 339.701 177.878 341.864 170.818 343.907C165.321 345.499 159.403 347.301 155.168 351.987C151.443 356.103 148.919 361.87 146.246 367.518C143.783 372.745 142.851 378.693 141.319 384.52C139.787 390.348 136.663 395.905 136.122 401.643C135.522 407.951 136.753 414.08 137.444 419.457C138.165 425.314 139.727 432.674 143.032 440.004C145.825 446.192 149.009 452.981 153.335 458.839C157.661 464.697 163.819 468.842 169.316 473.018C175.144 477.493 181.272 480.828 188.181 482.029L188.211 481.999Z" fill="black"/>
<path d="M602.4 684.738C597.263 687.952 592.156 690.806 586.809 693.089C581.462 695.372 575.664 697.084 569.957 698.346C564.249 699.607 558.392 700.749 552.444 700.809C546.496 700.869 540.818 699.788 534.93 698.526C529.043 697.264 523.515 696.183 517.898 693.78C511.74 691.136 505.822 686.45 501.346 679.781C497.591 674.194 494.797 667.195 492.304 659.865C490.051 653.226 489 645.896 487.828 638.537C486.657 631.177 485.575 624.148 485.545 616.938C478.426 609.999 477.194 611.591 468.543 606.725C459.891 601.858 460.131 601.407 451.48 596.541C442.829 591.675 442.288 592.666 433.606 587.799C424.925 582.933 424.895 583.023 416.243 578.187C407.592 573.35 407.502 573.471 398.85 568.604C390.199 563.738 390.379 563.377 381.728 558.511C373.076 553.644 373.136 553.524 364.455 548.658C355.773 543.791 355.773 543.791 347.122 538.925C335.166 532.226 335.557 531.535 323.631 524.836C319.846 522.703 314.138 527.239 308.641 533.247C305.096 537.092 302.693 541.779 298.337 545.834C293.801 537.122 294.673 536.822 292.9 527.149C291.128 517.476 292.269 517.266 290.467 507.593C288.665 497.921 288.004 498.041 286.201 488.368C284.399 478.695 276.438 476.172 283.378 469.172C290.317 462.173 292.66 470.074 301.972 472.146C311.285 474.219 310.864 476.172 320.176 478.275C329.489 480.377 329.729 479.416 339.041 481.489C348.354 483.562 355.473 476.232 358.687 485.214C361.661 493.475 350.546 490.771 344.118 496.749C337.689 502.727 330.36 500.834 332.132 509.426C334.115 519.038 340.393 514.563 349.014 519.249C357.636 523.935 357.365 524.476 366.017 529.162C374.668 533.848 375.479 532.376 384.101 537.062C392.722 541.749 392.632 541.929 401.284 546.645C409.935 551.361 409.695 551.782 418.316 556.498C426.938 561.214 426.968 561.184 435.589 565.901C444.21 570.617 444.481 570.166 453.132 574.852C461.784 579.539 461.874 579.418 470.525 584.105C479.177 588.791 477.975 591.645 487.558 593.988C492.214 589.932 496.42 585.336 501.166 581.371C505.912 577.406 510.779 573.26 515.615 569.595C520.752 565.72 526.519 563.047 531.536 559.923C537.153 556.408 542.23 552.503 547.577 550.4C553.886 547.907 560.254 547.186 565.962 547.366C571.669 547.546 577.527 549.288 583.324 550.941C589.122 552.593 594.259 555.176 599.516 557.88C604.773 560.583 610.661 562.716 615.167 566.321C620.033 570.256 623.458 575.273 626.732 579.749C630.607 584.976 634.452 589.902 635.323 595.219C636.345 601.287 636.435 608.196 636.044 615.256C635.684 621.714 634.272 628.353 632.74 634.992C631.208 641.631 629.856 648.209 627.303 654.277C624.749 660.345 621.355 666.684 617.6 671.851C613.484 677.528 607.837 681.373 602.46 684.768L602.4 684.738ZM572.42 680.202C578.548 678.099 584.106 675.485 589.032 672.752C594.71 669.598 599.816 666.143 603.992 662.298C608.708 657.942 612.133 652.836 614.986 647.789C617.99 642.412 620.514 636.734 621.505 630.816C622.496 624.899 621.896 618.801 621.024 612.642C620.213 606.875 617.99 601.257 615.647 595.43C613.304 589.602 608.348 583.774 601.469 579.539C595.551 575.904 588.702 572.509 581.342 570.977C573.982 569.445 566.472 569.685 559.443 570.797C551.993 571.999 544.784 574.402 539.406 579.298C535.621 582.753 532.077 588.28 529.944 594.739C528.202 600.086 528.081 606.454 527.36 612.612C526.639 618.77 526.549 624.778 526.76 630.516C527 637.365 527.961 643.493 529.313 648.149C530.665 652.805 534.21 658.723 539.316 664.01C543.672 668.546 548.869 672.902 554.126 675.906C560.675 679.661 567.524 681.914 572.45 680.202H572.42Z" fill="black"/>
<path d="M575.154 533.548C570.138 528.471 565.752 522.913 561.336 518.317C556.499 513.301 550.882 509.516 546.466 504.679C542.05 499.843 537.875 494.496 533.399 489.359C529.193 484.493 525.739 478.755 521.263 473.288C517.268 468.421 512.702 462.594 508.226 456.976C516.937 457.877 516.006 461.843 524.057 465.267C532.107 468.692 531.927 469.142 540.008 472.537C548.088 475.931 547.728 478.695 556.469 479.086C555.989 472.897 555.688 466.108 554.787 459.89C553.886 453.672 553.045 447.544 551.963 441.386C550.882 435.227 549.35 429.159 548.329 423.031C547.307 416.903 546.887 410.625 546.136 404.467C545.385 398.309 544.213 392.09 543.973 385.902C543.733 379.714 543.162 373.346 543.703 367.157C544.243 360.969 545.655 354.841 547.217 348.713C548.779 342.585 551.363 337.148 554.006 331.32C556.499 325.853 559.173 320.205 562.868 314.828C566.022 324.291 562.868 324.861 563.469 334.835C564.069 344.808 563.529 344.838 564.1 354.811C564.67 364.784 565.812 364.724 566.383 374.697C566.953 384.671 567.073 384.671 567.674 394.644C568.275 404.617 568.425 404.617 568.996 414.59C569.567 424.563 569.176 424.593 569.777 434.567C570.378 444.54 570.228 444.57 570.798 454.543C571.369 464.516 571.399 464.516 572 474.519C572.601 484.523 564.64 489.479 572.811 495.277C580.231 500.534 582.063 491.612 590.414 487.977C598.765 484.342 598.795 484.433 607.147 480.768C615.498 477.103 619.703 464.186 624.299 472.056C629.196 480.437 617.24 480.017 611.172 487.617C605.104 495.217 605.645 495.637 599.576 503.207C593.508 510.777 591.796 509.576 586.75 517.867C581.703 526.158 583.505 528.651 575.124 533.578L575.154 533.548Z" fill="black"/>
<path d="M639.169 240.059C637.757 246.698 636.675 254.058 633.521 260.787C630.367 267.516 626.011 273.163 621.986 278.961C617.69 285.149 613.244 290.977 608.378 295.543C602.37 301.19 595.911 304.525 590.084 306.177C583.175 308.129 575.875 310.322 568.395 309.691C560.915 309.061 554.006 306.748 546.947 304.314C539.887 301.881 533.188 298.907 526.91 295.152C520.632 291.397 514.474 286.741 509.277 281.935C504.5 277.489 501.046 272.022 497.261 266.975C493.476 261.928 488.73 257.062 485.906 251.444C483.082 245.827 481.039 239.338 479.357 233.3C477.675 227.262 477.525 220.533 477.074 214.255C476.624 207.977 475.212 201.188 476.263 195C477.314 188.811 480.679 182.803 483.443 177.126C486.356 171.088 490.171 166.011 494.167 161.085C498.342 155.948 502.638 151.292 507.715 147.417C512.791 143.542 518.379 140.027 524.207 137.353C530.034 134.68 536.313 132.787 542.621 131.435C548.929 130.084 555.418 128.942 561.816 129.002C568.215 129.062 574.733 130.354 580.952 131.916C587.56 133.568 593.899 135.251 599.636 138.134C605.374 141.018 611.562 144.353 616.459 148.648C621.355 152.944 625.501 158.351 629.195 163.878C632.89 169.406 635.083 175.444 637.336 181.842C639.439 187.85 641.452 194.098 642.263 200.917C643.014 207.196 642.593 213.774 642.173 220.654C641.782 226.932 640.641 233.36 639.199 240.119L639.169 240.059ZM625.14 212.363C625.35 205.964 623.428 200.016 622.256 194.369C620.965 188.151 619.763 182.173 616.969 177.036C613.995 171.569 609.97 166.973 605.584 162.887C601.198 158.802 596.422 154.746 590.775 152.253C585.127 149.76 579.119 149.85 572.871 149.129C567.073 148.438 561.005 149.219 554.787 152.343C549.53 154.987 544.513 158.922 539.647 163.548C535.201 167.784 531.086 172.62 527.481 178.027C523.876 183.434 520.001 188.541 517.778 194.429C515.555 200.317 515.435 208.007 514.774 215.547C514.173 222.486 513.843 229.635 514.684 236.755C515.525 243.874 516.096 251.384 518.409 257.813C521.022 265.022 525.949 270.429 530.425 275.206C533.879 278.901 538.415 282.566 544.754 284.098C550.011 285.359 556.019 286.441 562.027 286.411C568.035 286.381 573.802 285.419 579.329 284.368C585.488 283.196 591.255 281.214 595.851 278.931C601.589 276.047 606.575 271.871 610.391 266.735C613.965 261.898 616.429 255.89 618.561 249.612C620.514 243.904 622.437 237.746 623.428 231.288C624.329 225.19 624.96 218.791 625.17 212.363H625.14Z" fill="black"/>
</svg>
